PathFileType	4	(X/Y/Z)	1_coords_data.trc
DataRate	CameraRate	NumFrames	NumMarkers	Units	OrigDataRate	OrigDataStartFrame	OrigNumFrames
30.0	30.0	4	21	m	30.0	1	62
Frame#	Time	THUMB_TIP	THUMB_IP	THUMB_MCP	THUMB_CMC	INDEX_TIP	INDEX_DIP	INDEX_PIP	INDEX_MCP	MIDDLE_TIP	MIDDLE_DIP	MIDDLE_PIP	MIDDLE_MCP	RING_TIP	RING_DIP	RING_PIP	RING_MCP	PINKY_TIP	PINKY_DIP	PINKY_PIP	PINKY_MCP	WRIST
X1	Y1	Z1	X2	Y2	Z2	X3	Y3	Z3	X4	Y4	Z4	X5	Y5	Z5	X6	Y6	Z6	X7	Y7	Z7	X8	Y8	Z8	X9	Y9	Z9	X10	Y10	Z10	X11	Y11	Z11	X12	Y12	Z12	X13	Y13	Z13	X14	Y14	Z14	X15	Y15	Z15	X16	Y16	Z16	X17	Y17	Z17	X18	Y18	Z18	X19	Y19	Z19	X20	Y20	Z20	X21	Y21	Z21
0	0.0	0.0235531005859375	0.04305220031738281	0.9228590087890625	0.027962499618530274	0.05005089950561523	0.94627099609375	0.02395800018310547	0.052788101196289065	0.9726829833984375	0.000296476006507873	0.05941109848022461	0.9869080200195313	0.06508180236816406	-0.05704999923706055	0.9353790283203125	0.058332199096679686	-0.03830889892578125	0.9455139770507812	0.04967179870605469	-0.021162599563598634	0.9547000122070313	0.030612199783325196	0.00823606014251709	0.968385986328125	0.029149599075317383	0.037347301483154294	0.9504180297851562	0.032229099273681644	0.028460500717163086	0.9332069702148438	0.027643199920654296	0.005007740020751953	0.928052001953125	0.007083539962768555	-0.001554669976234436	0.9639539794921875	0.013123499870300292	0.04240280151367187	0.942051025390625	0.012936100006103516	0.030661500930786133	0.9282830200195312	0.004651810169219971	0.008269229888916015	0.9230460205078125	-0.011681699752807617	0.004854879856109619	0.9539769897460938	-0.032080799102783206	-0.025327699661254883	0.9017050170898437	-0.029278200149536134	-0.01140149974822998	0.9152529907226562	-0.026481199264526366	-0.00012024900317192001	0.9271119995117187	-0.022208499908447265	0.01899090003967285	0.9455020141601562	-0.02914109992980957	0.049292598724365234	1.0057899780273438
1	0.03333333333333333	0.023397300720214845	0.04344580078125	0.922989013671875	0.02775510025024414	0.05038869857788086	0.94635302734375	0.02368600082397461	0.053182498931884765	0.9729710083007812	9.1080896556377e-05	0.05981209945678711	0.9871380004882813	0.06678089904785156	-0.05604980087280274	0.9364769897460937	0.05957009887695312	-0.03736550140380859	0.9462689819335938	0.05045709991455078	-0.020206899642944337	0.9552039794921875	0.03056010055541992	0.008801250457763672	0.9685759887695312	0.02890369987487793	0.03751259994506836	0.950572021484375	0.03211859893798828	0.028941999435424803	0.9335380249023437	0.0274557991027832	0.005422060012817383	0.9281420288085938	0.006907760143280029	-0.001147549986839294	0.9638900146484375	0.012987000465393066	0.04273099899291992	0.942760009765625	0.012736200332641601	0.03090369987487793	0.9283410034179688	0.004440310001373291	0.008600640296936034	0.9232000122070313	-0.011883999824523926	0.005188360214233399	0.9540880126953125	-0.03208169937133789	-0.02475779914855957	0.9015650024414062	-0.029358299255371093	-0.010958100318908691	0.91514599609375	-0.0266525993347168	0.00029146799445152206	0.9271740112304687	-0.02244919967651367	0.01935689926147461	0.9456849975585937	-0.029307300567626954	0.04963539886474609	1.0059600219726563
2	0.06666666666666667	0.023285200119018554	0.044013900756835936	0.9232319946289063	0.027668800354003906	0.050826000213623046	0.9465999755859374	0.02356100082397461	0.053535301208496096	0.9733989868164062	-6.8324603140354e-05	0.06006999969482422	0.9874530029296875	0.06815280151367188	-0.0549552001953125	0.93731201171875	0.060604400634765625	-0.03626539993286133	0.9470999755859375	0.05123939895629883	-0.019280500411987304	0.9554979858398438	0.03055940055847168	0.009344949722290039	0.968864990234375	0.028775100708007813	0.03794839859008789	0.9509229736328125	0.03199469947814942	0.029483800888061525	0.9337230224609375	0.027429500579833985	0.006003039836883545	0.928281005859375	0.0068676300048828125	-0.0007635679841041561	0.9638870239257813	0.012724100112915039	0.04319340133666992	0.9430700073242188	0.012679300308227538	0.03143160057067871	0.9285250244140625	0.004359280109405518	0.009173040390014648	0.9232429809570313	-0.012007100105285645	0.005650479793548584	0.9539869995117187	-0.03195229911804199	-0.024043899536132812	0.9012789916992188	-0.029329000473022462	-0.010315699577331543	0.9151409912109375	-0.026631099700927734	0.000883858025074005	0.9271380004882812	-0.022537399291992187	0.01976180076599121	0.9457930297851562	-0.029539899826049806	0.04985950088500977	1.0063599853515626
3	0.1	0.023183399200439454	0.04494070053100586	0.923489990234375	0.0276117000579834	0.051546798706054685	0.9468590087890625	0.02342329978942871	0.05406290054321289	0.9738150024414063	-8.607610315084401e-05	0.06040060043334961	0.9878070068359375	0.06923660278320312	-0.053542301177978514	0.937072021484375	0.06137649917602539	-0.034991199493408204	0.9466439819335938	0.05168880081176758	-0.018028499603271485	0.9553629760742187	0.030454299926757813	0.010097999572753907	0.9690189819335937	0.028682699203491212	0.03871979904174805	0.9511079711914062	0.031867000579833986	0.030315799713134764	0.9337559814453125	0.027346900939941406	0.006891459941864014	0.9281649780273438	0.007016819953918457	-0.000164952993392944	0.9636680297851562	0.012400799751281739	0.04406240081787109	0.9430960083007812	0.012512399673461913	0.03235720062255859	0.9287459716796875	0.004319089889526367	0.009985830307006836	0.9233989868164062	-0.011867400169372558	0.006196169853210449	0.9538729858398437	-0.03197529983520508	-0.02320549964904785	0.901072998046875	-0.029319400787353515	-0.009620750427246094	0.915166015625	-0.02664889907836914	0.001454499959945678	0.9270440063476563	-0.02271649932861328	0.020250600814819338	0.94589697265625	-0.02956949996948242	0.04997439956665039	1.0065800170898438
